# MagicaVoxel @ Ephtracy

# material
mtllib SidewalkTileStraight.mtl
usemtl palette

# normals
vn -1 0 0
vn 1 0 0
vn 0 0 1
vn 0 0 -1
vn 0 -1 0
vn 0 1 0

# texcoords
vt 0.927734 0.5
vt 0.966797 0.5
vt 0.986328 0.5

# verts
v -50 0 50
v -50 0 49
v -50 0 -49
v -50 0 -50
v -50 6 -0
v -50 6 -1
v -50 7 50
v -50 7 49
v -50 7 -0
v -50 7 -1
v -50 7 -49
v -50 7 -50
v 8 2 50
v 8 2 49
v 8 2 -49
v 8 2 -50
v 8 7 50
v 8 7 49
v 8 7 -49
v 8 7 -50
v 14 1 50
v 14 1 49
v 14 1 -49
v 14 1 -50
v 14 2 50
v 14 2 49
v 14 2 -49
v 14 2 -50
v 50 0 50
v 50 0 -50
v 50 1 50
v 50 1 -50
v -50 0 50
v -50 7 50
v 8 2 50
v 8 7 50
v 14 0 50
v 14 1 50
v 14 2 50
v 50 0 50
v 50 1 50
v -50 0 -50
v -50 7 -50
v 8 2 -50
v 8 7 -50
v 14 0 -50
v 14 1 -50
v 14 2 -50
v 50 0 -50
v 50 1 -50
v -50 0 50
v 14 0 50
v 50 0 50
v -50 0 49
v 14 0 49
v -50 0 -49
v 14 0 -49
v -50 0 -50
v 14 0 -50
v 50 0 -50
v 14 1 50
v 50 1 50
v 14 1 49
v 14 1 -49
v 14 1 -50
v 50 1 -50
v 8 2 50
v 14 2 50
v 8 2 49
v 14 2 49
v 8 2 -49
v 14 2 -49
v 8 2 -50
v 14 2 -50
v -50 7 50
v 8 7 50
v -50 7 49
v 0 7 49
v 1 7 49
v 8 7 49
v -50 7 -0
v 0 7 -0
v -50 7 -1
v 0 7 -1
v -50 7 -49
v 0 7 -49
v 1 7 -49
v 8 7 -49
v -50 7 -50
v 8 7 -50

# faces
f 5/2/1 3/2/1 2/2/1
f 6/2/1 3/2/1 5/2/1
f 7/1/1 2/1/1 1/1/1
f 8/2/1 5/2/1 2/2/1
f 8/1/1 2/1/1 7/1/1
f 9/1/1 6/1/1 5/1/1
f 9/2/1 5/2/1 8/2/1
f 10/2/1 3/2/1 6/2/1
f 10/1/1 6/1/1 9/1/1
f 11/1/1 4/1/1 3/1/1
f 11/2/1 3/2/1 10/2/1
f 12/1/1 4/1/1 11/1/1
f 13/1/2 14/1/2 17/1/2
f 14/2/2 15/2/2 18/2/2
f 17/1/2 14/1/2 18/1/2
f 15/1/2 16/1/2 19/1/2
f 18/2/2 15/2/2 19/2/2
f 19/1/2 16/1/2 20/1/2
f 21/1/2 22/1/2 25/1/2
f 22/2/2 23/2/2 26/2/2
f 25/1/2 22/1/2 26/1/2
f 23/1/2 24/1/2 27/1/2
f 26/2/2 23/2/2 27/2/2
f 27/1/2 24/1/2 28/1/2
f 29/3/2 30/3/2 31/3/2
f 31/3/2 30/3/2 32/3/2
f 35/1/3 34/1/3 33/1/3
f 36/1/3 34/1/3 35/1/3
f 37/1/3 35/1/3 33/1/3
f 38/1/3 35/1/3 37/1/3
f 39/1/3 35/1/3 38/1/3
f 40/3/3 38/3/3 37/3/3
f 41/3/3 38/3/3 40/3/3
f 42/1/4 43/1/4 44/1/4
f 44/1/4 43/1/4 45/1/4
f 42/1/4 44/1/4 46/1/4
f 46/1/4 44/1/4 47/1/4
f 47/1/4 44/1/4 48/1/4
f 46/3/4 47/3/4 49/3/4
f 49/3/4 47/3/4 50/3/4
f 54/1/5 52/1/5 51/1/5
f 55/3/5 53/3/5 52/3/5
f 55/1/5 52/1/5 54/1/5
f 56/2/5 55/2/5 54/2/5
f 57/3/5 53/3/5 55/3/5
f 57/2/5 55/2/5 56/2/5
f 58/1/5 57/1/5 56/1/5
f 59/3/5 53/3/5 57/3/5
f 59/1/5 57/1/5 58/1/5
f 60/3/5 53/3/5 59/3/5
f 61/3/6 62/3/6 63/3/6
f 63/3/6 62/3/6 64/3/6
f 64/3/6 62/3/6 65/3/6
f 65/3/6 62/3/6 66/3/6
f 67/1/6 68/1/6 69/1/6
f 69/1/6 68/1/6 70/1/6
f 69/2/6 70/2/6 71/2/6
f 71/2/6 70/2/6 72/2/6
f 71/1/6 72/1/6 73/1/6
f 73/1/6 72/1/6 74/1/6
f 75/1/6 76/1/6 77/1/6
f 77/1/6 76/1/6 78/1/6
f 78/1/6 76/1/6 79/1/6
f 79/1/6 76/1/6 80/1/6
f 77/2/6 78/2/6 81/2/6
f 78/1/6 79/1/6 82/1/6
f 81/2/6 78/2/6 82/2/6
f 81/1/6 82/1/6 83/1/6
f 82/1/6 79/1/6 84/1/6
f 83/1/6 82/1/6 84/1/6
f 83/2/6 84/2/6 85/2/6
f 84/1/6 79/1/6 86/1/6
f 85/2/6 84/2/6 86/2/6
f 79/2/6 80/2/6 87/2/6
f 86/1/6 79/1/6 87/1/6
f 87/2/6 80/2/6 88/2/6
f 85/1/6 86/1/6 89/1/6
f 86/1/6 87/1/6 89/1/6
f 87/1/6 88/1/6 89/1/6
f 89/1/6 88/1/6 90/1/6
